<svg width="16" height="16" viewBox="0 0 16 16" fill="none" xmlns="http://www.w3.org/2000/svg">
<path d="M7.90625 15.0781C8.44526 15.0781 8.87496 14.664 8.87496 14.1328V7.1875C9.64846 6.82032 10.1875 6.03125 10.1875 5.125C10.1875 4.21875 9.64846 3.42969 8.87496 3.0625V0.92188C8.87496 0.41406 8.42966 0 7.90625 0C7.39844 0 6.9375 0.41406 6.9375 0.92188V3.0625C6.16406 3.42969 5.63281 4.21875 5.63281 5.125C5.63281 6.02344 6.16406 6.82032 6.9375 7.1875V14.1328C6.9375 14.6562 7.39062 15.0781 7.90625 15.0781ZM11.2657 9.93754C11.2657 10.8437 11.7969 11.6328 12.5703 12V14.1484C12.5703 14.6562 13.0235 15.0781 13.5391 15.0781C14.0703 15.0781 14.5079 14.664 14.5079 14.1484V12C15.2813 11.6328 15.8203 10.8515 15.8203 9.93754C15.8203 9.03124 15.2813 8.24214 14.5079 7.87504V0.9375C14.5079 0.41406 14.0625 0 13.5391 0C13.0313 0 12.5703 0.41406 12.5703 0.9375V7.88284C11.7969 8.24214 11.2657 9.03124 11.2657 9.93754ZM0 9.93754C0 10.8437 0.53906 11.6328 1.3125 12V14.1484C1.3125 14.6562 1.75781 15.0781 2.28125 15.0781C2.8125 15.0781 3.25 14.664 3.25 14.1484V12C4.02344 11.6328 4.55468 10.8515 4.55468 9.93754C4.55468 9.03124 4.02344 8.24214 3.25 7.88284V0.9375C3.25 0.41406 2.80468 0 2.28125 0C1.77344 0 1.3125 0.41406 1.3125 0.9375V7.87504C0.53906 8.24214 0 9.03124 0 9.93754ZM6.85937 5.125C6.85937 4.54688 7.32812 4.07813 7.90625 4.07813C8.50786 4.07813 8.96096 4.54688 8.96096 5.125C8.96096 5.71875 8.50786 6.17188 7.90625 6.17188C7.32812 6.17188 6.85937 5.71875 6.85937 5.125ZM12.4922 9.93754C12.4922 9.35934 12.961 8.89064 13.5391 8.89064C14.1407 8.89064 14.5938 9.35934 14.5938 9.93754C14.5938 10.5312 14.1407 10.9921 13.5391 10.9921C12.961 10.9921 12.4922 10.5312 12.4922 9.93754ZM1.22656 9.93754C1.22656 9.35934 1.69531 8.89064 2.28125 8.89064C2.875 8.89064 3.32812 9.35934 3.32812 9.93754C3.32812 10.5312 2.875 10.9921 2.28125 10.9921C1.69531 10.9921 1.22656 10.5312 1.22656 9.93754Z" fill="#D0DCE8"/>
</svg>
