<svg width="24" height="22" viewBox="0 0 24 22" fill="none" xmlns="http://www.w3.org/2000/svg">
<path d="M2.44623 15.7247L5.77121 12.587V22H2.44623V15.7247Z" fill="#FFAF37"/>
<path d="M11.2504 15.4905L11.9061 15.9354L14.5754 13.4534V22H11.2504V15.4905Z" fill="#FFAF37"/>
<path d="M15.6993 12.587L19.0243 9.44937V22H15.6993V12.587Z" fill="#FFAF37"/>
<path d="M6.84833 11.2289L10.1733 14.39V22H6.84833V11.2289Z" fill="#FFAF37"/>
<rect x="6.92712" y="5.00574" width="3.16158" height="9.79638" transform="rotate(45 6.92712 5.00574)" fill="#FFAF37"/>
<rect x="16.3043" y="5.00043" width="3.16158" height="9.79638" transform="rotate(45 16.3043 5.00043)" fill="#FFAF37"/>
<rect x="4.69409" y="7.23602" width="3.16158" height="9.79638" transform="rotate(-45 4.69409 7.23602)" fill="#FFAF37"/>
<path d="M20.3551 3.46045L20.2971 9.51208L14.3035 3.51841L20.3551 3.46045Z" fill="#FFAF37"/>
</svg>
