<svg width="13" height="17" viewBox="0 0 13 17" fill="none" xmlns="http://www.w3.org/2000/svg">
<path d="M1.70604 2.10713C1.70604 1.63452 1.75241 1.17523 1.83995 0.734974H11.1773C11.2649 1.17523 11.3112 1.63452 11.3112 2.10713C11.3112 4.71754 9.90353 6.92771 7.96164 7.67634C7.96107 7.67697 7.96107 7.67697 7.96037 7.67697H7.95986C7.85196 7.71947 7.74221 7.75627 7.63062 7.78799C7.44468 7.91803 7.32098 8.14825 7.32098 8.41095C7.32098 8.66597 7.43777 8.89111 7.61533 9.02249C7.73783 9.05738 7.85766 9.09791 7.97623 9.14486C9.91051 9.8985 11.3112 12.1049 11.3112 14.7084C11.3112 15.176 11.2661 15.6308 11.1805 16.0666H1.83678C1.75114 15.6308 1.70604 15.176 1.70604 14.7084C1.70604 12.1049 3.10611 9.8985 5.04039 9.14486C5.15902 9.09791 5.27885 9.05738 5.40129 9.02249C5.57898 8.89111 5.69577 8.66597 5.69577 8.41095C5.69577 8.14825 5.572 7.91803 5.38619 7.78799C5.27448 7.75627 5.16473 7.71884 5.05625 7.67697C5.05562 7.67697 5.05568 7.67697 5.05498 7.67634C3.11322 6.92771 1.70604 4.71754 1.70604 2.10713Z" fill="#CBDAE7"/>
<path d="M1.70604 2.10713C1.70604 1.63452 1.75241 1.17523 1.83995 0.734974H11.1773C11.2649 1.17523 11.3112 1.63452 11.3112 2.10713C11.3112 4.71754 9.90353 6.92771 7.96164 7.67634C7.96107 7.67697 7.96107 7.67697 7.96037 7.67697H7.95986C7.85196 7.71947 7.74221 7.75627 7.63062 7.78799C7.44468 7.91803 7.32098 8.14825 7.32098 8.41095C7.32098 8.66597 7.43777 8.89111 7.61533 9.02249C7.73783 9.05738 7.85766 9.09791 7.97623 9.14486C9.91051 9.8985 11.3112 12.1049 11.3112 14.7084C11.3112 15.176 11.2661 15.6308 11.1805 16.0666H1.83678C1.75114 15.6308 1.70604 15.176 1.70604 14.7084C1.70604 12.1049 3.10611 9.8985 5.04039 9.14486C5.15902 9.09791 5.27885 9.05738 5.40129 9.02249C5.57898 8.89111 5.69577 8.66597 5.69577 8.41095C5.69577 8.14825 5.572 7.91803 5.38619 7.78799C5.27448 7.75627 5.16473 7.71884 5.05625 7.67697C5.05562 7.67697 5.05568 7.67697 5.05498 7.67634C3.11322 6.92771 1.70604 4.71754 1.70604 2.10713Z" stroke="#122334" stroke-width="0.57094" stroke-miterlimit="10"/>
<path d="M12.053 0.734985H0.999988" stroke="#122334" stroke-width="0.57094" stroke-miterlimit="10" stroke-linecap="round"/>
<path d="M12.053 16.0666H0.999988" stroke="#122334" stroke-width="0.57094" stroke-miterlimit="10" stroke-linecap="round"/>
<path d="M11.3113 14.6945C11.3113 15.1671 11.265 15.6264 11.1774 16.0667H1.84006C1.75246 15.6264 1.70615 15.1671 1.70615 14.6945C1.70615 12.0841 3.11383 9.87396 5.05573 9.12533C5.0563 9.12469 5.0563 9.1247 5.05699 9.1247H5.0575C5.16541 9.08219 5.05712 9.0454 5.16871 9.01368C5.35464 8.88363 5.47828 8.65342 5.47828 8.39072C5.47828 8.1357 5.36156 7.91056 5.184 7.77918C5.0615 7.74429 4.9416 7.70375 4.82304 7.65681C2.88875 6.90317 1.70615 4.69674 1.70615 2.09325C1.70615 1.62571 1.75125 1.17086 1.83683 0.735046H11.1806C11.2662 1.17086 11.3113 1.62571 11.3113 2.09325C11.3113 4.69674 10.0698 6.90317 8.13557 7.65681C8.01694 7.70375 7.8971 7.74429 7.77467 7.77918C7.59698 7.91056 7.48019 8.1357 7.48019 8.39072C7.48019 8.65342 7.60402 8.88363 7.78983 9.01368C7.90155 9.0454 7.85263 9.08283 7.96111 9.1247C7.96175 9.1247 8.12034 9.12469 8.12104 9.12533C10.0628 9.87396 11.3113 12.0841 11.3113 14.6945Z" stroke="#122334" stroke-width="0.57094" stroke-miterlimit="10"/>
<path d="M2.74061 3.7623C2.74061 3.7623 2.76855 4.21368 2.869 4.41052C3.16217 4.99894 3.44495 5.61987 3.90615 6.08731C4.3959 6.56242 5.07346 6.7994 5.65068 7.16576C5.77426 7.24417 5.8946 7.32841 6.00771 7.42128C6.04368 7.45085 6.07959 7.4865 6.09475 7.53052C6.16783 7.74272 6.24756 7.95804 6.2692 8.18076C6.29475 8.70881 6.3055 9.24342 6.23547 9.76776C6.16789 10.5455 6.11493 11.6221 5.85946 12.0657C5.59635 12.4658 4.99701 12.7514 4.51068 13.0174C4.03073 13.308 2.88021 13.6842 2.6643 13.8955C2.55795 14.0441 2.63352 15.2417 2.63352 15.2417L6.49124 15.2382L10.4915 15.2716C10.4915 15.2716 10.5298 14.0693 10.3534 13.8517C10.0404 13.5461 8.9096 13.2991 8.6765 13.1048C8.489 12.9392 8.07381 11.9296 7.85756 11.6522C7.6116 11.3033 7.10098 11.2237 6.95872 10.5225C6.61123 9.7195 6.72393 8.75783 6.76085 7.87943C6.7981 7.64219 6.97581 7.41922 7.17319 7.27677C7.50417 7.03794 7.96105 7.01895 8.28661 6.77835C8.69682 6.47316 9.0169 6.06761 9.34012 5.67199C9.51281 5.50704 9.63814 5.3155 9.76255 5.11136C9.97806 4.70723 10.3519 3.85897 10.3519 3.85897L2.74061 3.7623Z" fill="#8C60E7"/>
<path d="M10.5909 13.7505C10.6299 14.1503 10.5515 15.0184 10.4771 15.3926H2.54033C2.46587 15.0184 2.40208 14.1515 2.4265 13.7505C2.55813 11.5905 4.11232 10.2742 5.27365 9.77002C5.27413 9.76948 5.27413 9.69016 5.27472 9.69016L5.37033 9.62674C5.46205 9.59062 5.46016 9.54343 5.55501 9.51647C5.71306 9.40593 6.01642 8.70279 6.01642 8.4795C6.01642 8.26273 5.92513 7.58762 5.7742 7.47595C5.6586 7.37986 5.36202 7.17393 5.26124 7.13403C3.6171 6.49344 2.4265 4.77656 2.4265 2.56359C2.4265 2.16619 2.46484 1.77956 2.53758 1.40912H10.4798C10.5526 1.77956 10.5909 2.16619 10.5909 2.56359C10.5909 4.77656 9.40085 6.49344 7.75671 7.13403C7.65587 7.17393 7.55401 7.20839 7.44994 7.23805C6.77673 7.4512 6.88247 8.41339 6.88247 8.63015C6.88247 8.85345 6.98767 9.24341 7.14561 9.35395C7.24056 9.38091 7.44482 9.55546 7.53703 9.59105C7.53757 9.59105 7.9182 9.87252 7.9188 9.87306C9.44113 10.5914 10.3927 11.7174 10.5909 13.7505Z" stroke="#CBDAE7" stroke-width="0.647066" stroke-miterlimit="10"/>
</svg>
