<svg width="17" height="17" viewBox="0 0 17 17" fill="none" xmlns="http://www.w3.org/2000/svg">
<path d="M8.5 16.1953C12.7891 16.1953 16.3359 12.6484 16.3359 8.3594C16.3359 4.0625 12.7891 0.523438 8.4922 0.523438C4.20312 0.523438 0.664062 4.0625 0.664062 8.3594C0.664062 12.6484 4.21094 16.1953 8.5 16.1953ZM8.4531 5.35938C7.96094 5.35938 7.5625 4.96875 7.5625 4.48438C7.5625 3.98438 7.96094 3.59375 8.4531 3.59375C8.9375 3.59375 9.3281 3.98438 9.3281 4.48438C9.3281 4.96875 8.9375 5.35938 8.4531 5.35938ZM7.07031 12.7188C6.80469 12.7188 6.60938 12.5234 6.60938 12.2656C6.60938 12.0234 6.80469 11.8203 7.07031 11.8203H8.2109V7.71094H7.17188C6.91406 7.71094 6.71875 7.51562 6.71875 7.25781C6.71875 7.01562 6.91406 6.8125 7.17188 6.8125H8.7109C9.0234 6.8125 9.1953 7.03906 9.1953 7.36719V11.8203H10.3359C10.5938 11.8203 10.7969 12.0234 10.7969 12.2656C10.7969 12.5234 10.5938 12.7188 10.3359 12.7188H7.07031Z" fill="#CBDBE8"/>
</svg>
