<svg width="54" height="46" viewBox="0 0 54 46" fill="none" xmlns="http://www.w3.org/2000/svg">
<g filter="url(#filter0_d_276_41)">
<path d="M23.844 15.6848C22.9913 14.4825 21.7565 13.4542 19.809 12.8095C20.7276 14.8883 19.735 16.4062 18.236 18.6952C17.7205 19.482 17.1342 20.3774 16.5679 21.4295L20.9449 28.9769L25.7001 19.81C25.2343 18.3732 24.7145 16.9098 23.845 15.6848H23.844ZM26.8501 16.7196C29.7978 10.1044 34.9362 10.0504 40.9608 9.98714C41.9399 9.97687 42.945 9.9666 43.9955 9.92067L48.3233 2.2782L5.64696 2.15392L9.86186 9.78126C10.3974 9.80071 10.908 9.81584 11.4154 9.83097C14.2481 9.91527 17.0067 9.9974 19.8679 10.5875L19.9479 10.6042C22.6973 11.3867 24.4146 12.7841 25.5964 14.4506C26.0921 15.1613 26.5122 15.9217 26.8501 16.7196V16.7196ZM35.7121 18.8082C34.2056 16.343 33.16 14.6311 33.7852 12.9138C31.2714 13.787 29.2601 15.6697 28.0167 19.7765L32.9562 28.6078L37.2792 21.4889C36.7388 20.4871 36.1952 19.6009 35.7121 18.8082ZM33.8597 31.2594L27.9697 41.7864L27.063 43.4075L26.1087 41.8161L21.0681 33.4122L21.0524 33.4425L20.0695 31.7479L14.4118 21.9953L14.12 21.4922L14.3821 20.9734C15.0948 19.5641 15.8146 18.465 16.4355 17.5183C17.7756 15.4714 18.5462 14.295 16.9218 12.2934C15.0808 12.0854 13.2365 12.0303 11.356 11.9746C10.6146 11.9525 9.86888 11.9303 9.17018 11.9017L8.56226 11.8763L8.26939 11.3467L2.88081 1.59409L2 0L3.82375 0.00486149L50.1627 0.139417L52 0.144819L51.096 1.74107L45.5734 11.4932L45.2848 12.0033L44.698 12.0357C43.4551 12.1049 42.1982 12.1178 40.9775 12.1308C39.5931 12.1448 38.2627 12.1589 37.0079 12.2729C35.182 13.8211 36.0353 15.2212 37.5483 17.6896C38.1346 18.6493 38.8014 19.7398 39.4677 21.0323L39.7422 21.564L39.4299 22.079L33.8597 31.2594ZM22.2304 31.1724L26.9954 39.1223L31.6891 30.7374L26.8949 22.172L22.2304 31.1724Z" fill="url(#paint0_linear_276_41)"/>
<path d="M23.844 15.6848C22.9913 14.4825 21.7565 13.4542 19.809 12.8095C20.7276 14.8883 19.735 16.4062 18.236 18.6952C17.7205 19.482 17.1342 20.3774 16.5679 21.4295L20.9449 28.9769L25.7001 19.81C25.2343 18.3732 24.7145 16.9098 23.845 15.6848H23.844ZM26.8501 16.7196C29.7978 10.1044 34.9362 10.0504 40.9608 9.98714C41.9399 9.97687 42.945 9.9666 43.9955 9.92067L48.3233 2.2782L5.64696 2.15392L9.86186 9.78126C10.3974 9.80071 10.908 9.81584 11.4154 9.83097C14.2481 9.91527 17.0067 9.9974 19.8679 10.5875L19.9479 10.6042C22.6973 11.3867 24.4146 12.7841 25.5964 14.4506C26.0921 15.1613 26.5122 15.9217 26.8501 16.7196V16.7196ZM35.7121 18.8082C34.2056 16.343 33.16 14.6311 33.7852 12.9138C31.2714 13.787 29.2601 15.6697 28.0167 19.7765L32.9562 28.6078L37.2792 21.4889C36.7388 20.4871 36.1952 19.6009 35.7121 18.8082ZM33.8597 31.2594L27.9697 41.7864L27.063 43.4075L26.1087 41.8161L21.0681 33.4122L21.0524 33.4425L20.0695 31.7479L14.4118 21.9953L14.12 21.4922L14.3821 20.9734C15.0948 19.5641 15.8146 18.465 16.4355 17.5183C17.7756 15.4714 18.5462 14.295 16.9218 12.2934C15.0808 12.0854 13.2365 12.0303 11.356 11.9746C10.6146 11.9525 9.86888 11.9303 9.17018 11.9017L8.56226 11.8763L8.26939 11.3467L2.88081 1.59409L2 0L3.82375 0.00486149L50.1627 0.139417L52 0.144819L51.096 1.74107L45.5734 11.4932L45.2848 12.0033L44.698 12.0357C43.4551 12.1049 42.1982 12.1178 40.9775 12.1308C39.5931 12.1448 38.2627 12.1589 37.0079 12.2729C35.182 13.8211 36.0353 15.2212 37.5483 17.6896C38.1346 18.6493 38.8014 19.7398 39.4677 21.0323L39.7422 21.564L39.4299 22.079L33.8597 31.2594ZM22.2304 31.1724L26.9954 39.1223L31.6891 30.7374L26.8949 22.172L22.2304 31.1724Z" fill="url(#paint1_linear_276_41)"/>
</g>
<defs>
<filter id="filter0_d_276_41" x="0.949978" y="0" width="52.1" height="45.5075" filterUnits="userSpaceOnUse" color-interpolation-filters="sRGB">
<feFlood flood-opacity="0" result="BackgroundImageFix"/>
<feColorMatrix in="SourceAlpha" type="matrix" values="0 0 0 0 0 0 0 0 0 0 0 0 0 0 0 0 0 0 127 0" result="hardAlpha"/>
<feOffset dy="1.05002"/>
<feGaussianBlur stdDeviation="0.525011"/>
<feComposite in2="hardAlpha" operator="out"/>
<feColorMatrix type="matrix" values="0 0 0 0 0 0 0 0 0 0 0 0 0 0 0 0 0 0 0.11 0"/>
<feBlend mode="normal" in2="BackgroundImageFix" result="effect1_dropShadow_276_41"/>
<feBlend mode="normal" in="SourceGraphic" in2="effect1_dropShadow_276_41" result="shape"/>
</filter>
<linearGradient id="paint0_linear_276_41" x1="27" y1="9.49538" x2="27" y2="43.4075" gradientUnits="userSpaceOnUse">
<stop stop-color="#1C1B2E"/>
<stop offset="0.9999"/>
</linearGradient>
<linearGradient id="paint1_linear_276_41" x1="27" y1="9.49538" x2="27" y2="43.4075" gradientUnits="userSpaceOnUse">
<stop stop-color="#28E0B2"/>
<stop offset="0.9999" stop-color="#67FFD9"/>
<stop offset="1" stop-color="#16866A"/>
</linearGradient>
</defs>
</svg>
