<?xml version="1.0" encoding="utf-8"?>
<!-- Generator: Adobe Illustrator 16.0.0, SVG Export Plug-In . SVG Version: 6.00 Build 0)  -->
<!DOCTYPE svg PUBLIC "-//W3C//DTD SVG 1.1//EN" "http://www.w3.org/Graphics/SVG/1.1/DTD/svg11.dtd">
<svg version="1.1" id="Layer_1" xmlns="http://www.w3.org/2000/svg" xmlns:xlink="http://www.w3.org/1999/xlink" x="0px" y="0px"
	 width="16px" height="18px" viewBox="0 0 16 18" enable-background="new 0 0 16 18" xml:space="preserve">
<linearGradient id="SVGID_1_" gradientUnits="userSpaceOnUse" x1="257.4346" y1="-341.0913" x2="256.1064" y2="-341.0971" gradientTransform="matrix(1 0 0 -1 -256 -327)">
	<stop  offset="0" style="stop-color:#26E2B3"/>
	<stop  offset="1" style="stop-color:#48FFD1"/>
</linearGradient>
<path fill="url(#SVGID_1_)" d="M1.989,17.5H0.853c-0.226,0-0.443-0.09-0.603-0.25C0.09,17.091,0,16.874,0,16.648v-5.114
	c0-0.226,0.09-0.442,0.25-0.603c0.16-0.16,0.376-0.25,0.603-0.25h1.136c0.226,0,0.443,0.09,0.603,0.25
	c0.16,0.16,0.25,0.377,0.25,0.603v5.114c0,0.226-0.09,0.442-0.25,0.602C2.432,17.41,2.215,17.5,1.989,17.5L1.989,17.5z"/>
<linearGradient id="SVGID_2_" gradientUnits="userSpaceOnUse" x1="266.0264" y1="-339.4204" x2="264.6986" y2="-339.4243" gradientTransform="matrix(1 0 0 -1 -256 -327)">
	<stop  offset="0" style="stop-color:#26E2B3"/>
	<stop  offset="1" style="stop-color:#48FFD1"/>
</linearGradient>
<path fill="url(#SVGID_2_)" d="M10.58,17.5H9.443c-0.227,0-0.443-0.09-0.603-0.25s-0.249-0.377-0.249-0.603V8.125
	c0-0.226,0.09-0.443,0.249-0.603C9,7.362,9.217,7.272,9.443,7.272h1.137c0.226,0,0.442,0.09,0.603,0.25
	c0.159,0.16,0.249,0.376,0.249,0.603v8.522c0,0.226-0.09,0.442-0.249,0.603C11.022,17.41,10.806,17.5,10.58,17.5L10.58,17.5z"/>
<linearGradient id="SVGID_3_" gradientUnits="userSpaceOnUse" x1="270.3223" y1="-337.4146" x2="268.9938" y2="-337.4174" gradientTransform="matrix(1 0 0 -1 -256 -327)">
	<stop  offset="0" style="stop-color:#26E2B3"/>
	<stop  offset="1" style="stop-color:#48FFD1"/>
</linearGradient>
<path fill="url(#SVGID_3_)" d="M14.875,17.5h-1.137c-0.226,0-0.442-0.09-0.602-0.25c-0.16-0.16-0.25-0.377-0.25-0.603v-12.5
	c0-0.226,0.09-0.442,0.25-0.603c0.159-0.16,0.376-0.25,0.602-0.25h1.137c0.227,0,0.443,0.09,0.604,0.25
	c0.159,0.16,0.249,0.377,0.249,0.603v12.5c0,0.226-0.09,0.442-0.249,0.603C15.318,17.41,15.102,17.5,14.875,17.5L14.875,17.5z"/>
<linearGradient id="SVGID_4_" gradientUnits="userSpaceOnUse" x1="261.7324" y1="-335.9888" x2="260.4037" y2="-335.9911" gradientTransform="matrix(1 0 0 -1 -256 -327)">
	<stop  offset="0" style="stop-color:#26E2B3"/>
	<stop  offset="1" style="stop-color:#48FFD1"/>
</linearGradient>
<path fill="url(#SVGID_4_)" d="M6.284,17.5H5.148c-0.226,0-0.443-0.09-0.603-0.25c-0.16-0.159-0.25-0.376-0.25-0.602V1.307
	c0-0.226,0.09-0.442,0.25-0.603c0.16-0.16,0.376-0.25,0.603-0.25h1.136c0.226,0,0.443,0.09,0.603,0.25
	c0.16,0.16,0.25,0.377,0.25,0.603v15.342c0,0.226-0.09,0.442-0.25,0.602C6.727,17.41,6.51,17.5,6.284,17.5L6.284,17.5z"/>
</svg>
