<?xml version="1.0" encoding="utf-8"?>
<!-- Generator: Adobe Illustrator 16.0.0, SVG Export Plug-In . SVG Version: 6.00 Build 0)  -->
<!DOCTYPE svg PUBLIC "-//W3C//DTD SVG 1.1//EN" "http://www.w3.org/Graphics/SVG/1.1/DTD/svg11.dtd">
<svg version="1.1" id="Layer_1" xmlns="http://www.w3.org/2000/svg" xmlns:xlink="http://www.w3.org/1999/xlink" x="0px" y="0px"
	 width="16px" height="16.994px" viewBox="0 28.84 16 16.994" enable-background="new 0 28.84 16 16.994" xml:space="preserve">
<linearGradient id="SVGID_1_" gradientUnits="userSpaceOnUse" x1="256.8789" y1="-353.2061" x2="269.1289" y2="-327.5811" gradientTransform="matrix(1 0 0 -1 -256 -299.166)">
	<stop  offset="0" style="stop-color:#1A8D7A"/>
	<stop  offset="0.957" style="stop-color:#19C5A5"/>
</linearGradient>
<path fill="url(#SVGID_1_)" d="M9.042,40.269c0.929,0,1.687,0.75,1.687,1.674v2.373c0,0.197,0.158,0.356,0.361,0.36h1.471
	c1.16,0,2.103-0.93,2.103-2.073V35.87c-0.005-0.393-0.192-0.764-0.515-1.01l-5.088-4.059c-0.684-0.541-1.639-0.541-2.324,0.002
	l-5.053,4.055c-0.334,0.254-0.521,0.625-0.525,1.024v6.72c0,1.145,0.942,2.073,2.101,2.073h1.485c0.209,0,0.379-0.165,0.379-0.368
	c0-0.045,0.005-0.091,0.015-0.133v-2.232c0-0.918,0.751-1.668,1.674-1.674H9.042z M12.561,45.834h-1.483
	c-0.851-0.021-1.507-0.688-1.507-1.521V41.94c0-0.284-0.236-0.518-0.527-0.518H6.815c-0.285,0.002-0.52,0.234-0.52,0.518v2.365
	c0,0.06-0.008,0.113-0.024,0.166c-0.083,0.764-0.736,1.361-1.527,1.361H3.259C1.461,45.834,0,44.384,0,42.603v-6.726
	c0.008-0.767,0.361-1.469,0.972-1.933l5.043-4.047c1.11-0.879,2.657-0.879,3.767-0.002l5.077,4.053
	c0.599,0.453,0.951,1.154,0.961,1.912v6.74C15.82,44.384,14.357,45.834,12.561,45.834z"/>
</svg>
