<?xml version="1.0" encoding="utf-8"?>
<!-- Generator: Adobe Illustrator 16.0.0, SVG Export Plug-In . SVG Version: 6.00 Build 0)  -->
<!DOCTYPE svg PUBLIC "-//W3C//DTD SVG 1.1//EN" "http://www.w3.org/Graphics/SVG/1.1/DTD/svg11.dtd">
<svg version="1.1" id="Layer_1" xmlns="http://www.w3.org/2000/svg" xmlns:xlink="http://www.w3.org/1999/xlink" x="0px" y="0px"
	 width="16px" height="16.994px" viewBox="0 28.84 16 16.994" enable-background="new 0 28.84 16 16.994" xml:space="preserve">
<path fill="#D0DCE8" d="M9.042,40.266c0.929,0,1.687,0.75,1.687,1.675v2.373c0,0.198,0.158,0.356,0.361,0.36h1.471
	c1.16,0,2.103-0.93,2.103-2.074v-6.731c-0.005-0.394-0.192-0.764-0.515-1.01l-5.088-4.058c-0.684-0.541-1.639-0.541-2.324,0.002
	l-5.054,4.055c-0.334,0.254-0.521,0.625-0.525,1.025v6.719c0,1.145,0.942,2.074,2.101,2.074h1.485c0.209,0,0.379-0.166,0.379-0.369
	c0-0.045,0.005-0.09,0.015-0.133v-2.232c0-0.918,0.751-1.668,1.674-1.674h2.23V40.266z M12.561,45.834h-1.483
	c-0.851-0.021-1.507-0.688-1.507-1.521V41.94c0-0.285-0.236-0.519-0.527-0.519H6.815c-0.285,0.002-0.52,0.235-0.52,0.519v2.364
	c0,0.06-0.008,0.113-0.024,0.166c-0.083,0.765-0.736,1.363-1.527,1.363H3.259C1.461,45.834,0,44.383,0,42.6v-6.723
	c0.008-0.768,0.361-1.47,0.972-1.933l5.043-4.047c1.11-0.88,2.657-0.88,3.767-0.002l5.077,4.052
	c0.599,0.455,0.951,1.155,0.961,1.913V42.6C15.82,44.383,14.357,45.834,12.561,45.834z"/>
</svg>
