<?xml version="1.0" encoding="utf-8"?>
<!-- Generator: Adobe Illustrator 16.0.0, SVG Export Plug-In . SVG Version: 6.00 Build 0)  -->
<!DOCTYPE svg PUBLIC "-//W3C//DTD SVG 1.1//EN" "http://www.w3.org/Graphics/SVG/1.1/DTD/svg11.dtd">
<svg version="1.1" id="Layer_1" xmlns="http://www.w3.org/2000/svg" xmlns:xlink="http://www.w3.org/1999/xlink" x="0px" y="0px"
	 width="16.958px" height="11.75px" viewBox="1.125 17.425 16.958 11.75" enable-background="new 1.125 17.425 16.958 11.75"
	 xml:space="preserve">
<path fill="#D0DCE8" d="M12.747,23.06c1.457,0,2.633-1.272,2.633-2.848c0-1.545-1.183-2.787-2.633-2.787
	c-1.445,0-2.634,1.254-2.634,2.794C10.12,21.787,11.29,23.06,12.747,23.06z M5.821,23.197c1.266,0,2.294-1.124,2.294-2.508
	c0-1.35-1.028-2.449-2.294-2.449c-1.261,0-2.301,1.112-2.295,2.455C3.526,22.078,4.555,23.197,5.821,23.197z M12.747,21.912
	c-0.785,0-1.445-0.736-1.445-1.693c-0.006-0.928,0.66-1.646,1.445-1.646c0.791,0,1.444,0.713,1.444,1.642
	C14.191,21.163,13.538,21.912,12.747,21.912z M5.821,22.068c-0.631,0-1.165-0.606-1.165-1.373c-0.006-0.73,0.534-1.326,1.165-1.326
	c0.636,0,1.171,0.583,1.171,1.32C6.992,21.46,6.457,22.068,5.821,22.068z M2.575,28.671h4.583c-0.356-0.214-0.576-0.7-0.535-1.13
	h-4.03c-0.106,0-0.148-0.047-0.148-0.143c0-1.271,1.534-2.508,3.371-2.508c0.6,0,1.266,0.153,1.729,0.403
	c0.208-0.333,0.476-0.611,0.85-0.85c-0.736-0.435-1.693-0.678-2.579-0.678c-2.532,0-4.577,1.789-4.577,3.762
	C1.238,28.28,1.684,28.671,2.575,28.671z M9.061,28.665h7.365c1.058,0,1.574-0.345,1.574-1.082c0-1.693-2.099-3.81-5.254-3.81
	c-3.156,0-5.262,2.116-5.262,3.81C7.485,28.321,8.003,28.665,9.061,28.665z M8.954,27.518c-0.13,0-0.179-0.041-0.179-0.144
	c0-0.854,1.438-2.455,3.972-2.455c2.524,0,3.965,1.601,3.965,2.455c0,0.103-0.047,0.144-0.172,0.144H8.954z"/>
</svg>
