<?xml version="1.0" encoding="utf-8"?>
<!-- Generator: Adobe Illustrator 16.0.0, SVG Export Plug-In . SVG Version: 6.00 Build 0)  -->
<!DOCTYPE svg PUBLIC "-//W3C//DTD SVG 1.1//EN" "http://www.w3.org/Graphics/SVG/1.1/DTD/svg11.dtd">
<svg version="1.1" id="Layer_1" xmlns="http://www.w3.org/2000/svg" xmlns:xlink="http://www.w3.org/1999/xlink" x="0px" y="0px"
	 width="16.958px" height="11.75px" viewBox="1.125 17.425 16.958 11.75" enable-background="new 1.125 17.425 16.958 11.75"
	 xml:space="preserve">
<linearGradient id="SVGID_1_" gradientUnits="userSpaceOnUse" x1="257.2388" y1="-322.4509" x2="274.0005" y2="-322.4509" gradientTransform="matrix(1 0 0 -1 -256 -299.1499)">
	<stop  offset="0" style="stop-color:#26E2B3"/>
	<stop  offset="1" style="stop-color:#0AAE85"/>
</linearGradient>
<path fill="url(#SVGID_1_)" d="M12.747,23.313c1.455,0,2.633-1.271,2.633-2.848c0-1.545-1.184-2.788-2.633-2.788
	c-1.445,0-2.635,1.255-2.635,2.794C10.12,22.041,11.29,23.313,12.747,23.313z M5.821,23.45c1.266,0,2.294-1.124,2.294-2.51
	c0-1.35-1.028-2.448-2.294-2.448c-1.261,0-2.301,1.111-2.295,2.454C3.526,22.332,4.555,23.45,5.821,23.45z M12.747,22.165
	c-0.785,0-1.445-0.736-1.445-1.693c-0.006-0.928,0.66-1.646,1.445-1.646c0.791,0,1.443,0.713,1.443,1.641
	C14.19,21.417,13.538,22.165,12.747,22.165z M5.821,22.32c-0.631,0-1.165-0.605-1.165-1.373c-0.006-0.73,0.534-1.324,1.165-1.324
	c0.636,0,1.171,0.582,1.171,1.318C6.992,21.714,6.457,22.32,5.821,22.32z M2.575,28.925h4.583c-0.356-0.215-0.576-0.701-0.535-1.131
	h-4.03c-0.106,0-0.148-0.047-0.148-0.144c0-1.271,1.534-2.508,3.371-2.508c0.6,0,1.266,0.154,1.729,0.404
	c0.208-0.332,0.476-0.611,0.85-0.851c-0.736-0.434-1.693-0.678-2.579-0.678c-2.532,0-4.577,1.789-4.577,3.763
	C1.238,28.532,1.684,28.925,2.575,28.925z M9.061,28.919h7.365c1.058,0,1.574-0.346,1.574-1.082c0-1.695-2.099-3.812-5.254-3.812
	c-3.156,0-5.262,2.115-5.262,3.812C7.485,28.573,8.003,28.919,9.061,28.919z M8.954,27.771c-0.13,0-0.179-0.041-0.179-0.143
	c0-0.855,1.438-2.455,3.972-2.455c2.524,0,3.965,1.6,3.965,2.455c0,0.102-0.049,0.143-0.174,0.143H8.954z"/>
</svg>
