<?xml version="1.0" encoding="iso-8859-1"?>
<!-- Generator: Adobe Illustrator 18.1.1, SVG Export Plug-In . SVG Version: 6.00 Build 0)  -->
<svg version="1.1" id="Capa_1" xmlns="http://www.w3.org/2000/svg" xmlns:xlink="http://www.w3.org/1999/xlink" x="0px" y="0px"
	 viewBox="0 0 29.055 29.055" style="enable-background:new 0 0 29.055 29.055;" xml:space="preserve">
<g>
	<path d="M14.528,16.085c-6.468,0-11.865-2.355-13.145-5.491c-0.19,0.462-0.292,0.94-0.292,1.43c0,3.824,6.016,6.925,13.437,6.925
		c7.42,0,13.437-3.101,13.437-6.925c0-0.49-0.104-0.968-0.291-1.43C26.39,13.73,20.993,16.085,14.528,16.085z"/>
	<path d="M14.528,21.06c-6.468,0-11.865-2.356-13.145-5.49c-0.19,0.461-0.292,0.94-0.292,1.431c0,3.823,6.016,6.923,13.437,6.923
		c7.42,0,13.437-3.1,13.437-6.923c0-0.491-0.104-0.97-0.291-1.432C26.39,18.704,20.993,21.06,14.528,21.06z"/>
	<path d="M14.528,26.192c-6.468,0-11.865-2.354-13.145-5.492c-0.19,0.463-0.292,0.942-0.292,1.432c0,3.824,6.016,6.923,13.437,6.923
		c7.42,0,13.437-3.099,13.437-6.923c0-0.49-0.104-0.969-0.291-1.432C26.39,23.839,20.993,26.192,14.528,26.192z"/>
	<ellipse cx="14.528" cy="6.923" rx="13.437" ry="6.923"/>
	<g>
	</g>
	<g>
	</g>
	<g>
	</g>
	<g>
	</g>
	<g>
	</g>
	<g>
	</g>
	<g>
	</g>
	<g>
	</g>
	<g>
	</g>
	<g>
	</g>
	<g>
	</g>
	<g>
	</g>
	<g>
	</g>
	<g>
	</g>
	<g>
	</g>
</g>
<g>
</g>
<g>
</g>
<g>
</g>
<g>
</g>
<g>
</g>
<g>
</g>
<g>
</g>
<g>
</g>
<g>
</g>
<g>
</g>
<g>
</g>
<g>
</g>
<g>
</g>
<g>
</g>
<g>
</g>
</svg>
