<?xml version="1.0" encoding="utf-8"?>
<!-- Generator: Adobe Illustrator 16.0.0, SVG Export Plug-In . SVG Version: 6.00 Build 0)  -->
<!DOCTYPE svg PUBLIC "-//W3C//DTD SVG 1.1//EN" "http://www.w3.org/Graphics/SVG/1.1/DTD/svg11.dtd">
<svg version="1.1" id="Layer_1" xmlns="http://www.w3.org/2000/svg" xmlns:xlink="http://www.w3.org/1999/xlink" x="0px" y="0px"
	 width="17px" height="19px" viewBox="0 13.813 17 19" enable-background="new 0 13.813 17 19" xml:space="preserve">
<linearGradient id="SVGID_1_" gradientUnits="userSpaceOnUse" x1="521.168" y1="787.2324" x2="519.1053" y2="812.5249" gradientTransform="matrix(1 0 0 1 -512 -772)">
	<stop  offset="0" style="stop-color:#26E2B3"/>
	<stop  offset="1" style="stop-color:#0AAE85"/>
</linearGradient>
<path fill="url(#SVGID_1_)" d="M9.617,32.095l6.039-3.5c0.688-0.398,1.016-0.766,1.016-1.32c0-0.563-0.328-0.922-1.016-1.328
	l-0.906-0.523l0.906-0.523c0.688-0.398,1.016-0.766,1.016-1.32c0-0.563-0.328-0.921-1.016-1.32l-1.078-0.625l1.078-0.625
	c0.688-0.406,1.016-0.766,1.016-1.32c0-0.563-0.328-0.922-1.016-1.328l-6.039-3.5c-0.438-0.25-0.773-0.383-1.125-0.383
	c-0.344,0-0.68,0.133-1.117,0.383l-6.039,3.5c-0.688,0.406-1.016,0.766-1.016,1.328c0,0.555,0.328,0.914,1.016,1.32l1.078,0.625
	l-1.078,0.625c-0.688,0.398-1.016,0.758-1.016,1.32c0,0.555,0.328,0.922,1.016,1.32l0.906,0.523l-0.906,0.521
	c-0.688,0.408-1.016,0.768-1.016,1.33c0,0.555,0.328,0.922,1.016,1.32l6.039,3.5c0.438,0.25,0.773,0.383,1.117,0.383
	C8.844,32.478,9.18,32.345,9.617,32.095z M8.492,23.008c-0.094,0-0.18-0.031-0.289-0.094L2.64,19.758
	c-0.039-0.016-0.055-0.039-0.055-0.07c0-0.039,0.016-0.063,0.055-0.078l5.563-3.156c0.109-0.063,0.195-0.094,0.289-0.094
	c0.094,0,0.18,0.031,0.297,0.094l5.563,3.156c0.031,0.016,0.056,0.039,0.056,0.078c0,0.031-0.023,0.055-0.056,0.07l-5.563,3.156
	C8.672,22.978,8.586,23.008,8.492,23.008z M8.492,24.892c0.352,0,0.688-0.133,1.125-0.383l3.219-1.867l1.516,0.859
	c0.031,0.021,0.056,0.039,0.056,0.078c0,0.029-0.023,0.055-0.056,0.068l-5.563,3.164c-0.117,0.064-0.203,0.094-0.297,0.094
	c-0.094,0-0.18-0.029-0.289-0.094L2.64,23.647c-0.039-0.016-0.055-0.039-0.055-0.068c0-0.039,0.016-0.057,0.055-0.078l1.516-0.859
	l3.219,1.867C7.813,24.759,8.148,24.892,8.492,24.892z M8.203,30.501L2.64,27.345c-0.039-0.016-0.055-0.039-0.055-0.07
	c0-0.039,0.016-0.055,0.055-0.078l1.344-0.758l3.391,1.961c0.438,0.25,0.773,0.383,1.117,0.383c0.352,0,0.688-0.133,1.125-0.383
	l3.391-1.961l1.344,0.758c0.031,0.023,0.056,0.039,0.056,0.078c0,0.031-0.023,0.055-0.056,0.07l-5.563,3.156
	c-0.117,0.063-0.203,0.094-0.297,0.094C8.398,30.595,8.313,30.563,8.203,30.501z"/>
</svg>
